<?xml version="1.0" encoding="UTF-8" standalone="no"?>
<svg
   xmlns:dc="http://purl.org/dc/elements/1.1/"
   xmlns:cc="http://creativecommons.org/ns#"
   xmlns:rdf="http://www.w3.org/1999/02/22-rdf-syntax-ns#"
   xmlns:svg="http://www.w3.org/2000/svg"
   xmlns="http://www.w3.org/2000/svg"
   xmlns:sodipodi="http://sodipodi.sourceforge.net/DTD/sodipodi-0.dtd"
   xmlns:inkscape="http://www.inkscape.org/namespaces/inkscape"
   width="20px"
   height="14px"
   viewBox="0 0 20 14"
   version="1.1"
   id="svg12"
   sodipodi:docname="youtube.svg"
   inkscape:version="0.92.4 (5da689c313, 2019-01-14)">
  <metadata
     id="metadata16">
    <rdf:RDF>
      <cc:Work
         rdf:about="">
        <dc:format>image/svg+xml</dc:format>
        <dc:type
           rdf:resource="http://purl.org/dc/dcmitype/StillImage" />
      </cc:Work>
    </rdf:RDF>
  </metadata>
  <sodipodi:namedview
     pagecolor="#ffffff"
     bordercolor="#666666"
     borderopacity="1"
     objecttolerance="10"
     gridtolerance="10"
     guidetolerance="10"
     inkscape:pageopacity="0"
     inkscape:pageshadow="2"
     inkscape:window-width="640"
     inkscape:window-height="480"
     id="namedview14"
     showgrid="false"
     inkscape:zoom="16.05"
     inkscape:cx="2.1495327"
     inkscape:cy="7"
     inkscape:window-x="0"
     inkscape:window-y="0"
     inkscape:window-maximized="0"
     inkscape:current-layer="svg12" />
  <!-- Generator: Sketch 3.8.1 (29687) - http://www.bohemiancoding.com/sketch -->
  <title
     id="title2">youtube [#168]</title>
  <desc
     id="desc4">Created with Sketch.</desc>
  <defs
     id="defs6" />
  <g
     id="Page-1"
     stroke="none"
     stroke-width="1"
     fill="none"
     fill-rule="evenodd"
     style="fill:#ffffff">
    <g
       id="Dribbble-Light-Preview"
       transform="translate(-300.000000, -7442.000000)"
       fill="#000000"
       style="fill:#ffffff">
      <g
         id="icons"
         transform="translate(56.000000, 160.000000)"
         style="fill:#ffffff">
        <path
           d="M251.988432,7291.58588 L251.988432,7285.97425 C253.980638,7286.91168 255.523602,7287.8172 257.348463,7288.79353 C255.843351,7289.62824 253.980638,7290.56468 251.988432,7291.58588 M263.090998,7283.18289 C262.747343,7282.73013 262.161634,7282.37809 261.538073,7282.26141 C259.705243,7281.91336 248.270974,7281.91237 246.439141,7282.26141 C245.939097,7282.35515 245.493839,7282.58153 245.111335,7282.93357 C243.49964,7284.42947 244.004664,7292.45151 244.393145,7293.75096 C244.556505,7294.31342 244.767679,7294.71931 245.033639,7294.98558 C245.376298,7295.33761 245.845463,7295.57995 246.384355,7295.68865 C247.893451,7296.0008 255.668037,7296.17532 261.506198,7295.73552 C262.044094,7295.64178 262.520231,7295.39147 262.895762,7295.02447 C264.385932,7293.53455 264.28433,7285.06174 263.090998,7283.18289"
           id="youtube-[#168]"
           style="fill:#ffffff" />
      </g>
    </g>
  </g>
</svg>
